<svg xmlns="http://www.w3.org/2000/svg" viewBox="0 0 923.89 318.9"><defs><style>.cls-1{fill:#2fff00;}</style></defs><title>logoAsset 3</title><g id="Layer_2" data-name="Layer 2"><g id="Layer_1-2" data-name="Layer 1"><path class="cls-1" d="M784.54,19.25q-.09,126-.07,252.09c0,4.65-.41,9.31-.72,16.1l-16.23-14.83L749.94,287.1V95.41c0-15.48.26-31-.07-46.43-.33-15.75,1.53-31.66-1.58-49-9.79,1.61-18.4-1.32-26.88,2.23v315c25.21,2.74,80.29,2,91-1V1.21h-27C785.12,7.61,784.54,13.43,784.54,19.25Z"/><path class="cls-1" d="M315.12,2.84C299.78-1.73,284.35,1.07,269.23.68S238.71-.06,224,1V317.68h89.07V300.49q0-95.43,0-190.84c0-5.48.57-11,.88-16.45a7.08,7.08,0,0,1-.07-3.57c1-9.63-9.45-12.89-12-20.19l13.18-17.28ZM285.26,291H252c-.74-3-2.16-6-2.16-9.06q-.18-96.87,0-193.73c0-1,.49-2,1.16-4.65h34.3Zm.18-235.31H250.33V30.32h35.11Z"/><path class="cls-1" d="M537.23,55V1.39H448.74c-.26,3.45-.64,6.12-.64,8.78q.24,152.55.56,305.11a2.53,2.53,0,0,0,.78,1.34,8.49,8.49,0,0,0,1.18,1H475V84h36.28c0,26.62,0,52.4,0,78.18V318h26.27V82.5L526.2,68.93Zm-25.9-.19c-11.85,3.54-23.54,1-35.95,1.89V30.44h34.43C512.8,38.7,510.52,46,511.33,54.77Z"/><path class="cls-1" d="M363.25,65.46h61.66V46.8H363.37V29.62c21.17-.92,41.44.38,61.18-.75V1.51H335.6c0,99.84,0,198.7,0,297.57,0,5.51.23,11,.41,16.55,0,.44.53.89.87,1.29s.8.76,1.49,1.4c27.87,0,56,0,84.18,0,.42,0,.86-.62,1.27-1s.81-.74,1.14-1.05v-24.7H363.25Z"/><path class="cls-1" d="M861.24,291V65.25H922.9V46.54H860.38c0-4-.2-6.68.06-9.28s1-5,1.64-8.33h60.86c.91-9.9,1.84-18.86-.7-28.38C907,.55,892.72.29,878.41.62c-14.69.34-29.5-1.47-43.94,1.12v316.1H923V292.16C902.3,291,882,293,861.24,291Z"/><path class="cls-1" d="M613.15,318.55c14.11,0,28.43.24,42.73-.06,14.72-.31,29.54,1.35,43.86-1V291.84c-11,0-20.88.39-30.77-.11-10.19-.52-20.8,2.58-30.76-2.62V65.74c10.65,0,20.49.33,30.31-.1,10.29-.44,20.87,2.14,31.26-2.32V46.13H638.21v-17h61.84V1.25H612.37C609.62,21.18,610.25,305.83,613.15,318.55Z"/><path class="cls-1" d="M2.47,318.54H45.21l43.89-.07V291.22H27.66V29.11H89.38V1.3H1.68C-1,21.61-.32,305.94,2.47,318.54Z"/><path class="cls-1" d="M202.43.55c-5.55,0-9.35-.12-13.13,0-4.24.17-8.46.58-13.44.94,0,14.31-.47,27.55.12,40.75.66,14.91-7.43,23-20.09,29.45l-17-17.37V1C129.46.65,121-.61,111.66,2.27V63.85l31.6,28.39c0,73.58,0,146.55,0,219.53a24.31,24.31,0,0,0,.25,3.3,3.86,3.86,0,0,0,.57,1.45,6.54,6.54,0,0,0,.92,1h25V93.11l32.76-28.58C202.58,42.88,203.13,22.09,202.43.55Z"/></g></g></svg>
