<svg xmlns="http://www.w3.org/2000/svg" viewBox="0 0 923.89 318.9"><defs><style>.cls-1{fill:#2fff00;}.cls-2{fill:#2fff00;}.cls-3{fill:#2fff00;}.cls-4{fill:#2fff00;}.cls-5{fill:#2fff00;}.cls-6{fill:#eeebef;}</style></defs><title>Asset 1</title><g id="Layer_2" data-name="Layer 2"><g id="Layer_1-2" data-name="Layer 1"><path class="cls-1" d="M721.41,317.21V2.23c8.48-3.55,17.09-.62,26.88-2.23,3.11,17.32,1.25,33.23,1.58,49,.33,15.47.07,31,.07,46.43V287.1l17.58-14.49,16.23,14.83c.31-6.79.72-11.45.72-16.1q.06-126,.07-252.09c0-5.82.58-11.64.92-18h27v315C801.7,319.18,746.62,320,721.41,317.21Z"/><path class="cls-2" d="M315.12,2.84C299.78-1.73,284.35,1.07,269.23.68S238.71-.06,224,1V317.68h89.07V300.49q0-95.43,0-190.84c0-5.48.57-11,.88-16.45a7.08,7.08,0,0,1-.07-3.57c1-9.63-9.45-12.89-12-20.19l13.18-17.28ZM285.26,291H252c-.74-3-2.16-6-2.16-9.06q-.18-96.87,0-193.73c0-1,.49-2,1.16-4.65h34.3Zm.18-235.31H250.33V30.32h35.11Z"/><path class="cls-3" d="M537.52,318H511.25V162.16c0-25.78,0-51.56,0-78.18H475V317.61H450.62a8.49,8.49,0,0,1-1.18-1,2.53,2.53,0,0,1-.78-1.34q-.33-152.56-.56-305.11c0-2.66.38-5.33.64-8.78h88.49V55l-11,14L537.52,82.5Z"/><path class="cls-4" d="M425,291.55v24.7c-.33.31-.72.7-1.14,1.05s-.85,1-1.27,1c-28.16.05-56.31,0-84.18,0-.69-.64-1.13-1-1.49-1.4s-.85-.85-.87-1.29c-.18-5.52-.41-11-.41-16.55,0-98.87,0-197.73,0-297.57h88.95V28.87c-19.74,1.13-40-.17-61.18.75V46.8h61.54V65.46H363.25V291.55Z"/><path class="cls-3" d="M861.24,65.25V291c20.79,2,41.06,0,61.74,1.18v25.68H834.47V1.74C848.91-.85,863.72,1,878.41.62,892.72.29,907,.55,922.24.55c2.54,9.52,1.61,18.48.7,28.38H862.08c-.67,3.28-1.39,5.78-1.64,8.33s-.06,5.25-.06,9.28H922.9V65.25Z"/><path class="cls-5" d="M638.21,29.16v17h61.57V63.32c-10.39,4.46-21,1.88-31.26,2.32-9.82.43-19.66.1-30.31.1V289.11c10,5.2,20.57,2.1,30.76,2.62,9.89.5,19.82.11,30.77.11v25.65c-14.32,2.35-29.14.69-43.86,1-14.3.3-28.62.06-42.73.06-2.9-12.72-3.53-297.37-.78-317.3h87.68V29.16Z"/><path class="cls-4" d="M27.66,291.22H89.1v27.25l-43.89.07H2.47C-.32,305.94-1,21.61,1.68,1.3h87.7V29.11H27.66Z"/><path class="cls-3" d="M170,93.11V317.53H145a6.54,6.54,0,0,1-.92-1,3.86,3.86,0,0,1-.57-1.45,24.31,24.31,0,0,1-.25-3.3c0-73,0-145.95,0-219.53l-31.6-28.39V2.27C121-.61,129.46.65,138.9,1V54.35l17,17.37c12.66-6.45,20.75-14.54,20.09-29.45-.59-13.2-.12-26.44-.12-40.75,5-.36,9.2-.77,13.44-.94,3.78-.15,7.58,0,13.13,0,.7,21.54.15,42.33.35,64Z"/><path class="cls-6" d="M285.26,83.55V291H252c-.74-3-2.16-6-2.16-9.06q-.18-96.87,0-193.73c0-1,.49-2,1.16-4.65Z"/><rect class="cls-6" x="250.33" y="30.32" width="35.11" height="25.36"/><path class="cls-6" d="M511.33,54.77c-11.85,3.54-23.54,1-35.95,1.89V30.44h34.43C513.14,37.84,510.52,46,511.33,54.77Z"/></g></g></svg>
